<svg width="800" height="800" viewBox="0 0 800 800" fill="none" xmlns="http://www.w3.org/2000/svg">
  <defs>
    <linearGradient id="romanceSky" x1="400" y1="90" x2="400" y2="752" gradientUnits="userSpaceOnUse">
      <stop stop-color="#101A35"/>
      <stop offset="1" stop-color="#050816"/>
    </linearGradient>
    <radialGradient id="capsuleGlow" cx="0" cy="0" r="1" gradientUnits="userSpaceOnUse" gradientTransform="translate(400 420) rotate(90) scale(220)">
      <stop stop-color="#FF9F8D" stop-opacity="0.26"/>
      <stop offset="1" stop-color="#FF9F8D" stop-opacity="0"/>
    </radialGradient>
  </defs>

  <rect width="800" height="800" rx="80" fill="url(#romanceSky)"/>
  <ellipse cx="400" cy="420" rx="240" ry="210" fill="url(#capsuleGlow)"/>

  <circle cx="278" cy="278" r="86" fill="#F6E7C7" fill-opacity="0.14" stroke="rgba(246,231,199,0.2)" stroke-width="2"/>
  <circle cx="522" cy="278" r="86" fill="#90E3FF" fill-opacity="0.14" stroke="rgba(144,227,255,0.22)" stroke-width="2"/>

  <path d="M154 624C232 556 314 522 400 520C487 518 571 555 646 624" stroke="#F6E7C7" stroke-opacity="0.3" stroke-width="3"/>
  <path d="M196 642C264 576 332 544 400 544C468 544 536 576 604 642" stroke="#90E3FF" stroke-width="4" stroke-linecap="round"/>

  <g>
    <rect x="210" y="356" width="170" height="196" rx="85" fill="#0B152C" stroke="rgba(255,255,255,0.12)" stroke-width="2"/>
    <rect x="420" y="356" width="170" height="196" rx="85" fill="#0B152C" stroke="rgba(255,255,255,0.12)" stroke-width="2"/>
    <rect x="240" y="394" width="110" height="86" rx="43" fill="#11264A" stroke="rgba(246,231,199,0.18)" stroke-width="2"/>
    <rect x="450" y="394" width="110" height="86" rx="43" fill="#11264A" stroke="rgba(246,231,199,0.18)" stroke-width="2"/>
    <rect x="288" y="460" width="224" height="34" rx="17" fill="#0D1E3C" stroke="rgba(144,227,255,0.18)" stroke-width="2"/>
    <path d="M332 420C350 390 380 374 400 374C420 374 450 390 468 420" stroke="#FF9F8D" stroke-width="4" stroke-linecap="round"/>
  </g>

  <path d="M400 192C417 160 434 146 458 132" stroke="#90E3FF" stroke-width="3" stroke-linecap="round" stroke-dasharray="10 10"/>
  <g transform="translate(462 126) rotate(20)">
    <path d="M0 16L24 0L20 19L38 30L16 28L8 44L2 26L-16 16L0 16Z" fill="#F6E7C7"/>
    <path d="M38 30L52 36L40 44L38 30Z" fill="#FF9F8D"/>
  </g>
</svg>
