<svg width="800" height="800" viewBox="0 0 800 800" fill="none" xmlns="http://www.w3.org/2000/svg">
  <defs>
    <linearGradient id="sky" x1="400" y1="90" x2="400" y2="740" gradientUnits="userSpaceOnUse">
      <stop stop-color="#101D3B"/>
      <stop offset="1" stop-color="#050816"/>
    </linearGradient>
    <radialGradient id="earth" cx="0" cy="0" r="1" gradientUnits="userSpaceOnUse" gradientTransform="translate(406 278) rotate(90) scale(120)">
      <stop stop-color="#A6FBFF"/>
      <stop offset="0.42" stop-color="#90E3FF"/>
      <stop offset="1" stop-color="#2A5E88"/>
    </radialGradient>
  </defs>

  <rect width="800" height="800" rx="80" fill="url(#sky)"/>
  <circle cx="406" cy="278" r="118" fill="url(#earth)" opacity="0.95"/>
  <path d="M0 542C111 478 218 448 324 452C432 456 557 518 800 650V800H0V542Z" fill="#0B1327"/>
  <path d="M0 612C133 548 240 526 343 532C468 539 590 604 800 720V800H0V612Z" fill="#142040"/>

  <ellipse cx="400" cy="562" rx="176" ry="116" fill="#F6E7C7" fill-opacity="0.08" stroke="rgba(246,231,199,0.18)" stroke-width="2"/>
  <path d="M260 560C289 508 333 478 400 474C467 478 511 508 540 560" stroke="#90E3FF" stroke-width="4" stroke-linecap="round"/>
  <path d="M290 560C316 521 352 499 400 496C448 499 484 521 510 560" stroke="#F6E7C7" stroke-width="3" stroke-linecap="round"/>

  <rect x="318" y="470" width="164" height="144" rx="36" fill="#091224" stroke="rgba(255,255,255,0.12)" stroke-width="2"/>
  <rect x="344" y="448" width="112" height="90" rx="45" fill="#102246" stroke="rgba(246,231,199,0.2)" stroke-width="2"/>
  <rect x="366" y="526" width="68" height="18" rx="9" fill="#90E3FF" fill-opacity="0.7"/>
  <rect x="348" y="556" width="104" height="12" rx="6" fill="#F6E7C7" fill-opacity="0.62"/>
  <rect x="348" y="579" width="104" height="8" rx="4" fill="#90E3FF" fill-opacity="0.3"/>

  <path d="M152 302L168 264L184 302L222 318L184 334L168 372L152 334L114 318L152 302Z" fill="#90E3FF" fill-opacity="0.12" stroke="#90E3FF" stroke-opacity="0.55" stroke-width="2"/>
  <path d="M608 214L622 182L636 214L668 228L636 242L622 274L608 242L576 228L608 214Z" fill="#FF9F8D" fill-opacity="0.12" stroke="#FF9F8D" stroke-opacity="0.55" stroke-width="2"/>
</svg>
